# xmcd
#
# Track frame offsets:
# 150
# 19430
# 35370
# 49652
# 63685
# 81484
# 97290
# 112851
# 126512
# 138349
#
# Disc length: 2037 seconds
#
#
# Revision: 0
# Processed by: cddbd v1.4PL0 Copyright (c) Steve Scherf et al.
# Submitted via: FreeRIP 2.00 
#
DISCID=9307f30a
DTITLE=Johnny Paycheck - Mr. Hag Told My Story
DYEAR=1981
DGENRE=Country
TTITLE0=Turnin' Off A Memory (with Merle Haggard)
TTITLE1=I've Got A Yearning
TTITLE2=Carolyn (with Merle Haggard)
TTITLE3=I'll Leave The Bottle On The Bar
TTITLE4=All Night Lady
TTITLE5=I Can't Hold Myself In Line (with Merle Haggard)
TTITLE6=Yesterday's News Just Hit Home Today
TTITLE7=You Don't Have Very Far to Go
TTITLE8=No More You And Me
TTITLE9=Someone Told My Story (with Merle Haggard)
EXTD=Koch Records
EXTT0=
EXTT1=
EXTT2=
EXTT3=
EXTT4=
EXTT5=
EXTT6=
EXTT7=
EXTT8=
EXTT9=
PLAYORDER=
